<svg xmlns="http://www.w3.org/2000/svg" width="1792" height="1024" viewBox="0 0 1792 1024"><rect width="1792" height="1024" fill="#fff"/><g fill="none" stroke="#181818" stroke-width="10" stroke-linecap="round" stroke-linejoin="round"><path d="M129 608 C162 539 280 541 319 608 C353 669 316 744 246 749 C172 754 119 682 129 608Z" fill="#181818"/><ellipse cx="216" cy="644" rx="9" ry="14" fill="#fff" stroke="none"/><ellipse cx="250" cy="644" rx="9" ry="14" fill="#fff" stroke="none"/><path d="M173 714 L158 783 M291 714 L309 783"/><path d="M402 386 L718 386 L718 705 L402 705Z" fill="#d9efff" stroke="#1d74d8"/><path d="M447 470 L671 470 M447 551 L671 551 M447 632 L630 632"/><path d="M719 545 L866 545" stroke="#f48a22"/><path d="M831 527 L870 545 L831 563" fill="#f48a22" stroke="#f48a22"/><path d="M907 299 L1283 299 L1283 752 L907 752Z"/><path d="M947 400 L1240 400 M947 509 L1240 509 M947 618 L1240 618"/><path d="M950 426 L1114 426 L1114 481 L950 481Z" fill="#d9efff" stroke="#1d74d8"/><path d="M950 535 L1114 535 L1114 590 L950 590Z"/><path d="M950 644 L1114 644 L1114 699 L950 699Z" fill="#d9efff" stroke="#1d74d8"/><path d="M1285 545 L1401 545" stroke="#f48a22"/><path d="M1366 527 L1405 545 L1366 563" fill="#f48a22" stroke="#f48a22"/><path d="M1440 450 L1656 450 L1656 662 L1440 662Z"/><path d="M1472 510 L1622 510 M1472 574 L1590 574"/></g><g font-family="PingFang SC, Noto Sans CJK SC, sans-serif" font-size="40" font-weight="700" fill="#181818"><text x="110" y="508">Agent</text><text x="404" y="348" fill="#1d74d8">MCP 客户端</text><text x="908" y="258">MCP 服务器</text><text x="950" y="382" fill="#1d74d8">工具：能执行</text><text x="950" y="491">资源：只读</text><text x="950" y="600" fill="#1d74d8">提示：可选模板</text><text x="1442" y="418">外部世界</text></g></svg>
